<svg width="690" height="640" viewBox="0 0 690 640" fill="none" xmlns="http://www.w3.org/2000/svg">
  <g opacity="0.78">
    <ellipse cx="280" cy="330" rx="245" ry="245" stroke="#9ED0FF" stroke-width="1.4" opacity="0.62"/>
    <ellipse cx="280" cy="330" rx="190" ry="190" stroke="#1B98E0" stroke-width="1.2" opacity="0.34"/>
    <ellipse cx="280" cy="330" rx="132" ry="132" stroke="#004E89" stroke-width="1" opacity="0.18"/>
    <path d="M260 210 C360 210 400 270 470 285 C520 296 555 278 620 255" stroke="#1B98E0" stroke-width="2" stroke-linecap="round" stroke-dasharray="7 12" opacity="0.55"/>
    <path d="M285 384 C405 370 452 430 516 435 C558 438 590 420 650 408" stroke="#1B98E0" stroke-width="2" stroke-linecap="round" stroke-dasharray="7 12" opacity="0.55"/>
    <path d="M238 490 C338 520 430 542 524 532 C578 527 617 500 670 470" stroke="#2BBBAD" stroke-width="2" stroke-linecap="round" opacity="0.42"/>
    <circle cx="222" cy="202" r="4" fill="#FF4601" opacity="0.75"/>
    <circle cx="500" cy="286" r="5" fill="#1B98E0" opacity="0.7"/>
    <circle cx="615" cy="255" r="5" fill="#1B98E0" opacity="0.72"/>
    <circle cx="520" cy="435" r="5" fill="#1B98E0" opacity="0.68"/>
    <circle cx="650" cy="408" r="5" fill="#1B98E0" opacity="0.68"/>
    <circle cx="410" cy="530" r="5" fill="#2BBBAD" opacity="0.7"/>
    <circle cx="590" cy="500" r="5" fill="#2BBBAD" opacity="0.7"/>
  </g>
</svg>