<svg width="600" height="510" viewBox="0 0 600 510" fill="none" xmlns="http://www.w3.org/2000/svg">
  <defs>
    <marker id="pf-arrow-blue" markerWidth="16" markerHeight="16" refX="12" refY="8" orient="auto" markerUnits="userSpaceOnUse">
      <path d="M3 3L13 8L3 13" fill="none" stroke="#5298E8" stroke-width="2.2" stroke-linecap="round" stroke-linejoin="round"/>
    </marker>
    <marker id="pf-arrow-teal" markerWidth="16" markerHeight="16" refX="12" refY="8" orient="auto" markerUnits="userSpaceOnUse">
      <path d="M3 3L13 8L3 13" fill="none" stroke="#27B7AE" stroke-width="2.2" stroke-linecap="round" stroke-linejoin="round"/>
    </marker>
    <marker id="pf-arrow-orange" markerWidth="16" markerHeight="16" refX="12" refY="8" orient="auto" markerUnits="userSpaceOnUse">
      <path d="M3 3L13 8L3 13" fill="none" stroke="#E97A43" stroke-width="2.2" stroke-linecap="round" stroke-linejoin="round"/>
    </marker>
    <filter id="pf-line-glow" x="-20%" y="-60%" width="140%" height="220%">
      <feGaussianBlur stdDeviation="4" result="blur"/>
      <feMerge>
        <feMergeNode in="blur"/>
        <feMergeNode in="SourceGraphic"/>
      </feMerge>
    </filter>
  </defs>

  <g stroke-linecap="round" stroke-linejoin="round">
    <path d="M54 54C150 40 220 44 286 78C360 116 421 118 520 110" stroke="#5298E8" stroke-width="8" opacity="0.08" filter="url(#pf-line-glow)"/>
    <path d="M54 54C150 40 220 44 286 78C360 116 421 118 520 110" stroke="#5298E8" stroke-width="2.1" marker-end="url(#pf-arrow-blue)"/>

    <path d="M62 178C142 156 226 158 294 184C360 210 412 204 520 177" stroke="#E97A43" stroke-width="7" opacity="0.08" filter="url(#pf-line-glow)"/>
    <path d="M62 178C142 156 226 158 294 184C360 210 412 204 520 177" stroke="#E97A43" stroke-width="2" marker-end="url(#pf-arrow-orange)"/>

    <path d="M34 258C142 254 224 260 302 270C382 280 449 276 520 258" stroke="#5298E8" stroke-width="8" opacity="0.08" filter="url(#pf-line-glow)"/>
    <path d="M34 258C142 254 224 260 302 270C382 280 449 276 520 258" stroke="#5298E8" stroke-width="2.1" marker-end="url(#pf-arrow-blue)"/>

    <path d="M76 350C160 330 230 338 304 370C390 407 460 402 545 354" stroke="#27B7AE" stroke-width="7" opacity="0.08" filter="url(#pf-line-glow)"/>
    <path d="M76 350C160 330 230 338 304 370C390 407 460 402 545 354" stroke="#27B7AE" stroke-width="2" marker-end="url(#pf-arrow-teal)"/>

    <path d="M92 430C198 474 314 478 420 448C480 431 532 398 575 360" stroke="#5298E8" stroke-width="7" opacity="0.07" filter="url(#pf-line-glow)"/>
    <path d="M92 430C198 474 314 478 420 448C480 431 532 398 575 360" stroke="#5298E8" stroke-width="2" marker-end="url(#pf-arrow-blue)"/>
  </g>

  <g>
    <circle cx="54" cy="54" r="5" fill="#84D7F3"/>
    <circle cx="286" cy="78" r="5" fill="#84D7F3"/>
    <circle cx="408" cy="116" r="7" fill="#FFFFFF" stroke="#84D7F3" stroke-width="2"/>
    <circle cx="62" cy="178" r="5.5" fill="#E97A43"/>
    <circle cx="294" cy="184" r="6" fill="#E97A43"/>
    <circle cx="420" cy="202" r="5" fill="#E97A43"/>
    <circle cx="34" cy="258" r="5.5" fill="#5298E8"/>
    <circle cx="302" cy="270" r="6" fill="#5298E8"/>
    <circle cx="76" cy="350" r="5.5" fill="#FFFFFF" stroke="#95E3DA" stroke-width="2"/>
    <circle cx="304" cy="370" r="5.5" fill="#27B7AE"/>
    <circle cx="418" cy="448" r="5.5" fill="#5298E8"/>
    <circle cx="500" cy="388" r="6" fill="#FFFFFF" stroke="#95E3DA" stroke-width="2"/>
  </g>
</svg>
